<svg width="312" height="200" viewBox="0 0 312 200" fill="none" xmlns="http://www.w3.org/2000/svg">
<path d="M115.292 125.98C115.292 95.1147 143.213 70.0025 177.532 70.0025C184.946 70.0025 192.134 71.1457 198.975 73.4083C206.06 66.1526 215.273 60.9156 225.451 58.2315C216.383 39.9098 197.41 27.754 176.476 27.754C172.025 27.754 167.588 28.2939 163.29 29.3596C160.118 30.1448 156.789 28.8846 154.934 26.1907C143.645 9.79172 125.04 0 105.167 0C90.0553 0 75.5947 5.61057 64.451 15.7984C53.3765 25.9228 46.4944 39.6856 45.0735 54.5522C44.8113 57.3011 43.1239 59.7089 40.6302 60.8958C39.9042 61.2412 39.1739 61.6162 38.4634 62.0095C37.8079 62.3718 37.1045 62.6382 36.3729 62.8018C26.2062 65.0699 16.9727 70.7848 10.3697 78.8906C3.58628 87.219 0 97.2997 0 108.043C0 133.611 20.9198 154.412 46.6354 154.412H102.63C104.173 144.866 108.535 135.89 115.349 128.376C115.311 127.576 115.292 126.775 115.292 125.98Z" fill="#F5F5F5"/>
<path d="M284.692 127.299C280.616 125.825 278.507 121.328 279.978 117.251C281.187 113.901 281.799 110.411 281.799 106.875C281.799 91.9736 270.936 79.2244 255.684 74.1932C251.194 72.7116 246.328 71.8926 241.241 71.8926C238.578 71.8926 235.954 72.1252 233.394 72.5608C222.923 74.3426 213.58 79.6417 207.497 87.4908C205.303 90.3201 201.475 91.3083 198.187 89.8929C191.735 87.1159 184.784 85.7076 177.531 85.7076C151.87 85.7076 130.993 103.774 130.993 125.981C130.993 127.408 131.083 128.865 131.264 130.314C131.568 132.77 130.697 135.224 128.912 136.939C123.72 141.929 120.214 147.96 118.641 154.415C118.022 156.953 117.694 159.557 117.694 162.192C117.694 164.911 118.035 167.561 118.669 170.118C122.897 187.171 140.466 200 161.445 200H267.84C291.964 200 311.59 183.04 311.59 162.192C311.591 146.909 301.033 133.213 284.692 127.299Z" fill="#C7C7C7"/>
</svg>
