<svg width="250" height="200" viewBox="0 0 250 200" fill="none" xmlns="http://www.w3.org/2000/svg">
<path d="M92.1469 92.1641C92.1469 69.5835 114.462 51.2117 141.892 51.2117C147.818 51.2117 153.563 52.0482 159.03 53.7024C164.694 48.3942 172.056 44.5629 180.192 42.5993C172.945 29.1954 157.78 20.3023 141.049 20.3023C137.491 20.3023 133.945 20.6984 130.51 21.478C127.973 22.0545 125.312 21.1305 123.831 19.1597C114.808 7.16245 99.938 0 84.0539 0C71.9757 0 60.418 4.10461 51.5115 11.5569C42.6601 18.9637 37.1596 29.0324 36.0239 39.9086C35.8143 41.9197 34.4657 43.6812 32.4725 44.5495C31.8957 44.8001 31.312 45.0754 30.7397 45.3652C30.2158 45.6303 29.6547 45.8252 29.0699 45.9448C20.9442 47.6042 13.5632 51.7841 8.28686 57.7152C2.86519 63.8092 0 71.1831 0 79.0427C0 97.7476 16.7213 112.966 37.2734 112.966H82.0269C83.2607 105.982 86.7467 99.4162 92.1931 93.9172C92.1627 93.3304 92.1469 92.7457 92.1469 92.1641Z" fill="white"/>
<path d="M54.9186 200C55.527 200 56.1467 199.919 56.7596 199.747C60.0732 198.817 61.9356 195.605 60.9205 192.571L53.3649 170.004C52.3497 166.97 48.84 165.266 45.5264 166.195C42.2128 167.125 40.3493 170.337 41.3655 173.371L48.9212 195.938C49.7493 198.411 52.2337 200 54.9186 200Z" fill="#9EDAFF"/>
<path d="M107.468 200C108.076 200 108.696 199.919 109.309 199.747C112.623 198.817 114.486 195.605 113.47 192.571L105.914 170.004C104.899 166.97 101.388 165.266 98.0757 166.195C94.7621 167.125 92.8986 170.337 93.9149 173.371L101.47 195.938C102.297 198.411 104.783 200 107.468 200Z" fill="#9EDAFF"/>
<path d="M160.017 200C160.625 200 161.245 199.919 161.858 199.747C165.172 198.817 167.034 195.605 166.019 192.571L158.463 170.004C157.447 166.97 153.938 165.266 150.625 166.195C147.311 167.125 145.448 170.337 146.464 173.371L154.02 195.938C154.847 198.411 157.332 200 160.017 200Z" fill="#9EDAFF"/>
<path d="M227.54 93.1283C224.284 92.0496 222.597 88.7597 223.773 85.7782C224.739 83.3278 225.229 80.7732 225.229 78.1878C225.229 67.2858 216.545 57.9586 204.356 54.2778C200.767 53.1939 196.878 52.5947 192.813 52.5947C190.684 52.5947 188.588 52.7649 186.543 53.0836C178.174 54.3871 170.706 58.2638 165.844 64.0062C164.092 66.076 161.031 66.798 158.403 65.7636C153.246 63.7319 147.692 62.7016 141.894 62.7016C121.385 62.7016 104.699 75.9188 104.699 92.1651C104.699 93.2088 104.771 94.2762 104.916 95.3343C105.159 97.1308 104.462 98.9263 103.036 100.18C98.8867 103.831 96.0835 108.243 94.8272 112.966C94.3326 114.823 94.0701 116.728 94.0701 118.655C94.0701 120.644 94.3427 122.583 94.8497 124.454C98.2287 136.93 112.271 146.315 129.037 146.315H214.073C233.355 146.315 249.04 133.907 249.04 118.655C249.038 107.475 240.6 97.4557 227.54 93.1283Z" fill="#89E9FF"/>
</svg>
