<svg width="213" height="200" viewBox="0 0 213 200" fill="none" xmlns="http://www.w3.org/2000/svg">
<path d="M197.16 60.4781C196.088 59.6623 195.308 58.5232 194.933 57.2297C189.195 37.3949 170.749 23.5418 150.077 23.5418C146.269 23.5418 142.475 24.0037 138.8 24.9153C136.266 25.5429 133.602 24.5355 132.121 22.3824C122.473 8.36704 106.573 0 89.5903 0C76.6747 0 64.3179 4.79421 54.7937 13.5004C45.3292 22.1525 39.4478 33.9144 38.2343 46.6205C38.0247 48.8176 36.6749 50.7432 34.6817 51.6908C34.0609 51.986 33.4367 52.3071 32.8226 52.6462C32.2987 52.9358 31.7364 53.1487 31.1528 53.2794C22.4455 55.223 14.537 60.1164 8.88196 67.0593C3.07145 74.1937 0 82.8278 0 92.0297C0 113.93 17.9183 131.746 39.9424 131.746H172.902C194.926 131.746 212.844 113.929 212.844 92.0297C212.844 79.5682 207.127 68.0677 197.16 60.4781Z" fill="white"/>
<path d="M35.7229 157.896C32.6289 157.896 30.1208 160.405 30.1208 163.499V172.13L20.9437 169.644C17.9567 168.834 14.8807 170.599 14.0706 173.585C13.2616 176.572 15.0261 179.648 18.013 180.458L26.8409 182.85L21.5059 191.073C19.8214 193.669 20.5606 197.138 23.1565 198.821C24.0985 199.433 25.1553 199.725 26.2009 199.725C28.0352 199.725 29.8335 198.825 30.9061 197.172L35.8052 189.621L41.1132 197.521C42.1948 199.131 43.9649 200 45.7687 200C46.8425 200 47.9298 199.691 48.8875 199.048C51.4564 197.323 52.1393 193.841 50.4143 191.273L44.7333 182.817L53.4339 180.459C56.4197 179.65 58.1853 176.573 57.3752 173.586C56.5662 170.6 53.4914 168.836 50.5022 169.645L41.3261 172.131V163.5C41.3249 160.405 38.8169 157.896 35.7229 157.896Z" fill="#83C7FF"/>
<path d="M106.421 157.896C103.327 157.896 100.819 160.405 100.819 163.499V172.13L91.6422 169.644C88.6552 168.834 85.5781 170.599 84.7691 173.585C83.9601 176.572 85.7245 179.648 88.7104 180.458L97.5383 182.85L92.2033 191.073C90.5188 193.669 91.2579 197.138 93.8539 198.821C94.7958 199.433 95.8527 199.725 96.8983 199.725C98.7326 199.725 100.531 198.825 101.604 197.172L106.502 189.621L111.81 197.521C112.892 199.131 114.662 200 116.466 200C117.54 200 118.627 199.691 119.585 199.048C122.154 197.323 122.837 193.841 121.112 191.273L115.431 182.817L124.131 180.459C127.117 179.65 128.883 176.573 128.072 173.586C127.263 170.6 124.189 168.836 121.199 169.645L112.023 172.131V163.5C112.023 160.405 109.515 157.896 106.421 157.896Z" fill="#83C7FF"/>
<path d="M177.121 157.896C174.027 157.896 171.519 160.405 171.519 163.499V172.13L162.343 169.644C159.356 168.834 156.279 170.599 155.47 173.585C154.661 176.572 156.425 179.648 159.411 180.458L168.239 182.85L162.904 191.073C161.22 193.669 161.959 197.138 164.555 198.821C165.497 199.433 166.554 199.725 167.599 199.725C169.434 199.725 171.232 198.825 172.304 197.172L177.203 189.621L182.511 197.521C183.593 199.131 185.363 200 187.167 200C188.241 200 189.328 199.691 190.286 199.048C192.854 197.323 193.538 193.841 191.813 191.273L186.132 182.817L194.833 180.459C197.819 179.65 199.585 176.573 198.775 173.586C197.966 170.6 194.891 168.836 191.902 169.645L182.725 172.131V163.5C182.723 160.405 180.215 157.896 177.121 157.896Z" fill="#83C7FF"/>
</svg>
