<svg width="209" height="200" viewBox="0 0 209 200" fill="none" xmlns="http://www.w3.org/2000/svg">
<path d="M191.24 55.8274C190.201 55.0744 189.443 54.0229 189.08 52.8289C183.514 34.5193 165.623 21.7315 145.571 21.7315C141.878 21.7315 138.197 22.1579 134.632 22.9994C132.172 23.5797 129.591 22.6488 128.154 20.6612C118.795 7.72363 103.373 0 86.9003 0C74.3736 0 62.3867 4.42662 53.1485 12.4633C43.9682 20.4501 38.2633 31.3075 37.0851 43.0365C36.8808 45.0646 35.5726 46.8421 33.6393 47.7168C33.0371 47.9893 32.4305 48.2868 31.8371 48.5988C31.3289 48.8661 30.7835 49.0627 30.2174 49.1834C21.7715 50.9775 14.0994 55.4946 8.61527 61.9036C2.97922 68.4893 0 76.4595 0 84.9538C0 105.169 17.3803 121.616 38.743 121.616H167.712C189.075 121.616 206.455 105.169 206.455 84.9538C206.453 73.4505 200.908 62.8344 191.24 55.8274Z" fill="white"/>
<path d="M189.614 146.576C189.614 143.376 186.888 140.782 183.526 140.782H23.6655C20.3038 140.782 17.5781 143.376 17.5781 146.576C17.5781 149.775 20.3038 152.369 23.6655 152.369H183.525C186.888 152.369 189.614 149.775 189.614 146.576Z" fill="white"/>
<path d="M174.719 188.413H14.8589C11.4971 188.413 8.77148 191.007 8.77148 194.206C8.77148 197.406 11.4971 200 14.8589 200H174.719C178.08 200 180.806 197.406 180.806 194.206C180.806 191.007 178.08 188.413 174.719 188.413Z" fill="white"/>
<path d="M51.0566 164.92C47.6949 164.92 44.9692 167.514 44.9692 170.713C44.9692 173.913 47.6949 176.506 51.0566 176.506H109.642C113.004 176.506 115.73 173.913 115.73 170.713C115.73 167.514 113.004 164.92 109.642 164.92H51.0566Z" fill="white"/>
<path d="M202.465 164.92H143.879C140.517 164.92 137.792 167.514 137.792 170.713C137.792 173.913 140.517 176.506 143.879 176.506H202.465C205.827 176.506 208.552 173.913 208.552 170.713C208.552 167.513 205.827 164.92 202.465 164.92Z" fill="white"/>
</svg>
