<svg width="203" height="200" viewBox="0 0 203 200" fill="none" xmlns="http://www.w3.org/2000/svg">
<path d="M110.866 148.858C138.232 143.687 156.166 117.616 150.921 90.6285C145.677 63.6408 119.241 45.9554 91.8753 51.1271C64.5093 56.2988 46.5759 82.369 51.8201 109.357C57.0643 136.344 83.5001 154.03 110.866 148.858Z" fill="#FFDF15"/>
<path d="M96.0337 27.7249C96.0337 30.6492 98.438 33.0202 101.403 33.0202C104.369 33.0202 106.773 30.6492 106.773 27.7249V5.29528C106.773 2.37097 104.369 0 101.403 0C98.438 0 96.0337 2.37097 96.0337 5.29528V27.7249Z" fill="#FFDF15"/>
<path d="M96.0337 172.274V194.704C96.0337 197.629 98.438 200 101.403 200C104.369 200 106.773 197.629 106.773 194.704V172.274C106.773 169.35 104.369 166.979 101.403 166.979C98.438 166.979 96.0337 169.35 96.0337 172.274Z" fill="#FFDF15"/>
<path d="M64.7635 42.7041C65.6745 42.7041 66.5981 42.4751 67.4435 41.994C70.0117 40.5319 70.8918 37.2929 69.4092 34.7602L58.0367 15.3348C56.554 12.8021 53.2696 11.9351 50.7024 13.3963C48.1342 14.8585 47.2541 18.0975 48.7368 20.6292L60.1093 40.0546C61.1032 41.7544 62.9068 42.7041 64.7635 42.7041Z" fill="#FFDF15"/>
<path d="M135.362 158.006C132.793 159.468 131.913 162.707 133.396 165.239L144.768 184.664C145.763 186.363 147.568 187.313 149.424 187.313C150.335 187.313 151.258 187.084 152.104 186.603C154.672 185.141 155.552 181.902 154.069 179.369L142.697 159.944C141.214 157.412 137.93 156.544 135.362 158.006Z" fill="#FFDF15"/>
<path d="M13.5854 49.9995C12.1027 52.5321 12.9829 55.7711 15.551 57.2333L35.2488 68.4485C36.0942 68.9296 37.0178 69.1587 37.9288 69.1587C39.7835 69.1587 41.5891 68.209 42.584 66.5101C44.0667 63.9775 43.1865 60.7385 40.6184 59.2773L20.9206 48.062C18.3525 46.5999 15.0681 47.4668 13.5854 49.9995Z" fill="#FFDF15"/>
<path d="M187.254 142.767L167.556 131.552C164.989 130.09 161.704 130.957 160.221 133.49C158.738 136.023 159.618 139.261 162.186 140.724L181.884 151.939C182.729 152.42 183.653 152.649 184.564 152.649C186.42 152.649 188.224 151.699 189.219 150.001C190.702 147.467 189.822 144.229 187.254 142.767Z" fill="#FFDF15"/>
<path d="M33.4832 100C33.4832 97.0761 31.0789 94.7051 28.1136 94.7051H5.36958C2.40427 94.7051 0 97.0761 0 100C0 102.925 2.40427 105.296 5.36958 105.296H28.1136C31.0789 105.296 33.4832 102.925 33.4832 100Z" fill="#FFDF15"/>
<path d="M197.435 94.7051H174.69C171.725 94.7051 169.321 97.0761 169.321 100C169.321 102.925 171.725 105.296 174.69 105.296H197.435C200.401 105.296 202.805 102.925 202.805 100C202.805 97.0761 200.401 94.7051 197.435 94.7051Z" fill="#FFDF15"/>
<path d="M35.2488 131.551L15.551 142.767C12.9829 144.229 12.1027 147.468 13.5854 150C14.5803 151.699 16.3849 152.649 18.2406 152.649C19.1516 152.649 20.0752 152.42 20.9206 151.939L40.6184 140.723C43.1865 139.261 44.0667 136.022 42.584 133.49C41.1004 130.956 37.816 130.089 35.2488 131.551Z" fill="#FFDF15"/>
<path d="M181.885 48.062L162.188 59.2773C159.62 60.7394 158.739 63.9784 160.222 66.5101C161.217 68.209 163.022 69.1587 164.877 69.1587C165.788 69.1587 166.712 68.9296 167.557 68.4485L187.255 57.2333C189.823 55.7711 190.703 52.5321 189.221 49.9995C187.737 47.4668 184.453 46.5999 181.885 48.062Z" fill="#FFDF15"/>
<path d="M60.1083 159.944L48.7358 179.369C47.2531 181.902 48.1333 185.141 50.7014 186.603C51.5469 187.084 52.4704 187.313 53.3814 187.313C55.2361 187.313 57.0418 186.363 58.0366 184.665L69.4091 165.239C70.8918 162.707 70.0117 159.468 67.4435 158.006C64.8754 156.544 61.591 157.411 60.1083 159.944Z" fill="#FFDF15"/>
<path d="M135.362 41.994C136.207 42.4751 137.131 42.7041 138.042 42.7041C139.898 42.7041 141.702 41.7544 142.697 40.0555L154.07 20.6301C155.552 18.0975 154.672 14.8594 152.104 13.3973C149.537 11.9361 146.251 12.8031 144.77 15.3357L133.397 34.7611C131.914 37.2928 132.794 40.5309 135.362 41.994Z" fill="#FFDF15"/>
</svg>
