<svg width="213" height="200" viewBox="0 0 213 200" fill="none" xmlns="http://www.w3.org/2000/svg">
<path d="M63.8003 122.782L91.7244 37.8412H126.997L106.421 95.2038H149.042L123.066 136.137H172.9C194.923 136.137 212.841 117.727 212.841 95.0978C212.841 82.221 207.124 70.3372 197.157 62.4947C196.086 61.6518 195.305 60.4747 194.931 59.1381C189.192 38.6422 170.746 24.3263 150.075 24.3263C146.267 24.3263 142.473 24.8037 138.798 25.7456C136.262 26.3941 133.6 25.3532 132.119 23.1283C122.472 8.64706 106.573 0 89.5893 0C76.674 0 64.3164 4.95514 54.7924 13.9503C45.3281 22.8908 39.4468 35.0446 38.2334 48.1741C38.0238 50.4456 36.674 52.4354 34.6798 53.4145C34.0635 53.7172 33.4381 54.049 32.8218 54.4007C32.2979 54.6999 31.7357 54.9199 31.152 55.055C22.4449 57.0634 14.5355 62.1198 8.88175 69.294C3.07137 76.6662 0 85.5892 0 95.0967C0 117.725 17.9179 136.136 39.9414 136.136H98.0362L101.277 122.781L63.8003 122.782Z" fill="white"/>
<path d="M106.421 95.2034L126.996 37.8408H91.7244L63.8003 122.782H101.277L98.0362 136.137L94.8893 149.106L82.5384 200L114.835 149.106L123.066 136.137L149.041 95.2034H106.421Z" fill="#E6C705"/>
</svg>
